<svg width="176" height="70" viewBox="0 0 176 70" fill="none" xmlns="http://www.w3.org/2000/svg">
<path fill-rule="evenodd" clip-rule="evenodd" d="M56.7719 34.7244C56.7719 22.8525 47.1478 13.2283 35.2759 13.2283V11.0236C48.3655 11.0236 58.9767 21.6348 58.9767 34.7244C58.9767 41.4199 56.1988 47.4685 51.7357 51.7773L50.2044 50.1912C54.255 46.2806 56.7719 40.7974 56.7719 34.7244Z" fill="#ED3237"/>
<path fill-rule="evenodd" clip-rule="evenodd" d="M13.2281 34.7244C13.2281 46.5964 22.8522 56.2205 34.7241 56.2205V58.4252C21.6345 58.4252 11.0233 47.814 11.0233 34.7244C11.0233 28.3234 13.5624 22.513 17.6859 18.2494L19.2707 19.7821C15.5288 23.6512 13.2281 28.918 13.2281 34.7244Z" fill="#ED3237"/>
<path d="M84.6035 33.8152H93.0736C93.0736 30.0984 92.1811 27.3997 90.3963 25.7191C88.6438 24.0061 85.788 23.1496 81.8289 23.1496C77.9995 23.1496 75.1437 24.0707 73.2615 25.913C71.3792 27.7552 70.4381 30.4378 70.4381 33.9607C70.4381 35.9968 70.7789 37.6452 71.4604 38.9057C72.1743 40.1661 73.0505 41.1842 74.089 41.9599C75.1599 42.7356 76.312 43.3658 77.5452 43.8506C78.7783 44.3354 79.9142 44.8202 80.9526 45.305C82.0236 45.7575 82.8998 46.3231 83.5813 47.0018C84.2952 47.6482 84.6522 48.537 84.6522 49.6682C84.6522 50.6055 84.3926 51.3974 83.8734 52.0438C83.3866 52.6902 82.6726 53.0134 81.7315 53.0134C80.8553 53.0134 80.1413 52.7225 79.5897 52.1407C79.038 51.5266 78.7621 50.4762 78.7621 48.9895V48.1653H70V49.3773C70 51.1873 70.2596 52.7063 70.7789 53.9345C71.2981 55.1626 72.0445 56.1646 73.0181 56.9402C74.0241 57.6836 75.241 58.2007 76.6689 58.4916C78.1293 58.8148 79.8006 58.9764 81.6828 58.9764C85.6745 58.9764 88.725 58.1522 90.8344 56.5039C92.9438 54.8233 93.9985 52.1407 93.9985 48.4562C93.9985 46.3554 93.6253 44.6586 92.8789 43.3658C92.1649 42.0407 91.2563 40.9741 90.1529 40.1661C89.0495 39.3581 87.865 38.7117 86.5993 38.2269C85.3337 37.7098 84.1492 37.2088 83.0458 36.724C81.9424 36.2392 81.0176 35.6736 80.2711 35.0272C79.5572 34.3485 79.2002 33.4436 79.2002 32.3124C79.2002 31.5367 79.4274 30.8418 79.8817 30.2277C80.3361 29.5813 81.05 29.2581 82.0236 29.2581C82.8998 29.2581 83.5488 29.6298 83.9707 30.3732C84.3926 31.0842 84.6035 31.9568 84.6035 32.9911V33.8152Z" fill="#373739"/>
<path d="M99.3097 23.8283V58.4431H108.364V23.8283H99.3097Z" fill="#373739"/>
<path d="M126.071 30.9064L123.589 45.5959H128.651L126.169 30.9064H126.071ZM131.816 23.8283L140.286 58.4431H130.647L129.722 52.3831H122.518L121.593 58.4431H112.101L120.425 23.8283H131.816Z" fill="#373739"/>
<path d="M144.212 23.8283V58.4431H153.266V44.19H164.648V37.1119H153.266V31.1973H164.803V23.8283H144.212Z" fill="#373739"/>
<path d="M71.0936 14.5411V16.5354H70.4219V11.4413H72.3007C72.8581 11.4413 73.2943 11.5835 73.6092 11.8681C73.9264 12.1527 74.085 12.5293 74.085 12.9982C74.085 13.4927 73.9299 13.874 73.6197 14.1423C73.3118 14.4082 72.8698 14.5411 72.2937 14.5411H71.0936ZM71.0936 13.9918H72.3007C72.6599 13.9918 72.9351 13.9078 73.1264 13.7399C73.3176 13.5696 73.4133 13.3247 73.4133 13.0052C73.4133 12.702 73.3176 12.4594 73.1264 12.2774C72.9351 12.0955 72.6727 12.001 72.3392 11.994H71.0936V13.9918Z" fill="#606062"/>
<path d="M76.6923 15.9861H79.1064V16.5354H76.017V11.4413H76.6923V15.9861Z" fill="#606062"/>
<path d="M83.8303 15.2059H81.6961L81.2168 16.5354H80.524L82.4693 11.4413H83.0571L85.0059 16.5354H84.3166L83.8303 15.2059ZM81.899 14.6531H83.6309L82.7632 12.2704L81.899 14.6531Z" fill="#606062"/>
<path d="M89.8313 11.994H88.1939V16.5354H87.5257V11.994H85.8918V11.4413H89.8313V11.994Z" fill="#606062"/>
<path d="M94.1949 15.2059H92.0607L91.5814 16.5354H90.8886L92.8339 11.4413H93.4217L95.3705 16.5354H94.6812L94.1949 15.2059ZM92.2636 14.6531H93.9955L93.1278 12.2704L92.2636 14.6531Z" fill="#606062"/>
<path d="M99.9405 14.2857H97.8028V16.5354H97.131V11.4413H100.287V11.994H97.8028V13.7364H99.9405V14.2857Z" fill="#606062"/>
<path d="M106.085 14.1527C106.085 14.6519 106.001 15.0881 105.833 15.4613C105.665 15.8321 105.427 16.1155 105.119 16.3115C104.811 16.5074 104.452 16.6053 104.042 16.6053C103.64 16.6053 103.285 16.5074 102.975 16.3115C102.664 16.1132 102.423 15.8321 102.25 15.4683C102.08 15.1021 101.993 14.6787 101.988 14.1982V13.8309C101.988 13.341 102.073 12.9084 102.243 12.5328C102.414 12.1573 102.654 11.8704 102.964 11.6722C103.277 11.4716 103.633 11.3713 104.035 11.3713C104.443 11.3713 104.802 11.4704 105.112 11.6687C105.425 11.8646 105.665 12.1503 105.833 12.5259C106.001 12.899 106.085 13.3341 106.085 13.8309V14.1527ZM105.417 13.8239C105.417 13.2198 105.295 12.7568 105.053 12.4349C104.81 12.1107 104.471 11.9486 104.035 11.9486C103.61 11.9486 103.275 12.1107 103.031 12.4349C102.788 12.7568 102.663 13.2046 102.656 13.7784V14.1527C102.656 14.7382 102.779 15.1989 103.024 15.5347C103.271 15.8683 103.61 16.0351 104.042 16.0351C104.476 16.0351 104.811 15.8776 105.049 15.5627C105.287 15.2455 105.41 14.7918 105.417 14.2017V13.8239Z" fill="#606062"/>
<path d="M110.036 14.4746H108.839V16.5354H108.164V11.4413H109.85C110.424 11.4413 110.865 11.5719 111.173 11.8331C111.483 12.0943 111.638 12.4745 111.638 12.9737C111.638 13.2909 111.552 13.5673 111.379 13.8029C111.209 14.0385 110.971 14.2146 110.665 14.3312L111.862 16.4934V16.5354H111.141L110.036 14.4746ZM108.839 13.9253H109.871C110.205 13.9253 110.469 13.839 110.665 13.6664C110.864 13.4938 110.963 13.2629 110.963 12.9737C110.963 12.6588 110.868 12.4174 110.679 12.2495C110.493 12.0815 110.222 11.9964 109.868 11.994H108.839V13.9253Z" fill="#606062"/>
<path d="M114.525 11.4413L116.191 15.5977L117.856 11.4413H118.727V16.5354H118.055V14.5516L118.118 12.4104L116.446 16.5354H115.932L114.263 12.4209L114.329 14.5516V16.5354H113.658V11.4413H114.525Z" fill="#606062"/>
<path d="M123.864 15.2059H121.73L121.25 16.5354H120.558L122.503 11.4413H123.091L125.04 16.5354H124.35L123.864 15.2059ZM121.933 14.6531H123.665L122.797 12.2704L121.933 14.6531Z" fill="#606062"/>
<path fill-rule="evenodd" clip-rule="evenodd" d="M50.1067 16.6176L51.5042 15.2186C51.8072 14.9153 52.2586 14.8151 52.6615 14.9619C53.0644 15.1087 53.3455 15.4758 53.3824 15.9029L54.5589 29.5434C54.5878 29.8792 54.4615 30.2099 54.216 30.4409C53.9705 30.6719 53.6328 30.7779 53.2994 30.7286L40.4017 28.8218C39.9897 28.7609 39.6472 28.473 39.5164 28.0777C39.3855 27.6823 39.4887 27.2469 39.783 26.9523L41.5329 25.2005C39.5196 23.5483 36.9864 22.6348 34.3594 22.6362C31.3627 22.6378 28.4893 23.8298 26.3714 25.9499C25.9411 26.3806 25.2432 26.381 24.8124 25.9507C24.3817 25.5205 24.3813 24.8225 24.8116 24.3918C27.3427 21.8579 30.7768 20.4334 34.3582 20.4315C37.9397 20.4296 41.3752 21.8505 43.9091 24.3816C44.1159 24.5882 44.2322 24.8686 44.2324 25.1609C44.2325 25.4533 44.1165 25.7337 43.9099 25.9406L42.8905 26.9611L52.2425 28.3437L51.3894 18.4531L50.9216 18.9215C50.7131 19.1301 50.4298 19.2465 50.135 19.2447C49.8404 19.243 49.5588 19.1233 49.353 18.9126L49.3523 18.9119L49.3503 18.9099L49.3317 18.8913C49.3138 18.8735 49.2849 18.8452 49.2453 18.8074C49.1662 18.7317 49.0443 18.6178 48.8814 18.4738C48.5556 18.1857 48.0672 17.7777 47.4311 17.313C46.1567 16.3819 44.3022 15.2323 41.9857 14.357C37.3843 12.6185 30.9221 11.9412 23.4303 16.3205C22.9047 16.6277 22.2296 16.4507 21.9223 15.9251C21.6151 15.3995 21.7921 14.7243 22.3177 14.4171C30.4724 9.65028 37.644 10.3598 42.7649 12.2946C45.3095 13.256 47.3382 14.5147 48.7317 15.5327C49.2939 15.9435 49.7548 16.3166 50.1067 16.6176Z" fill="#ED3237"/>
<path fill-rule="evenodd" clip-rule="evenodd" d="M19.3382 52.7055L17.9406 54.1046C17.6376 54.4079 17.1862 54.508 16.7833 54.3613C16.3805 54.2145 16.0993 53.8474 16.0624 53.4202L14.886 39.7798C14.857 39.444 14.9833 39.1133 15.2288 38.8823C15.4743 38.6513 15.812 38.5453 16.1455 38.5946L29.0431 40.5013C29.4551 40.5622 29.7976 40.8501 29.9285 41.2455C30.0593 41.6409 29.9562 42.0763 29.6618 42.3709L27.9119 44.1227C29.9252 45.7749 32.4584 46.6884 35.0854 46.687C38.0822 46.6854 40.9555 45.4934 43.0734 43.3733C43.5037 42.9426 44.2017 42.9422 44.6324 43.3725C45.0631 43.8027 45.0635 44.5007 44.6332 44.9314C42.1021 47.4652 38.6681 48.8898 35.0866 48.8917C31.5051 48.8936 28.0696 47.4727 25.5358 44.9416C25.3289 44.7349 25.2126 44.4546 25.2125 44.1622C25.2123 43.8699 25.3283 43.5894 25.5349 43.3826L26.5543 42.3621L17.2023 40.9795L18.0554 50.8701L18.5233 50.4017C18.7317 50.1931 19.015 50.0766 19.3099 50.0784C19.6044 50.0802 19.886 50.1998 20.0918 50.4106L20.0925 50.4112L20.0945 50.4133L20.1131 50.4319C20.131 50.4496 20.1599 50.4779 20.1995 50.5158C20.2786 50.5915 20.4006 50.7054 20.5634 50.8493C20.8892 51.1375 21.3776 51.5455 22.0138 52.0102C23.2882 52.9413 25.1426 54.0909 27.4592 54.9662C32.0605 56.7047 38.5227 57.382 46.0145 53.0027C46.5401 52.6955 47.2153 52.8725 47.5225 53.3981C47.8297 53.9237 47.6527 54.5989 47.1271 54.9061C38.9724 59.6729 31.8008 58.9634 26.6799 57.0286C24.1354 56.0672 22.1067 54.8085 20.7131 53.7904C20.1509 53.3797 19.69 53.0066 19.3382 52.7055Z" fill="#ED3237"/>
<path d="M34.9998 30.3151C34.342 30.3151 33.7111 30.5779 33.246 31.0457C32.7808 31.5134 32.5195 32.1479 32.5195 32.8095C32.5221 33.2448 32.638 33.6718 32.8556 34.0481C33.0731 34.4245 33.4976 34.737 33.8724 34.9547L32.5195 39.134H37.4802L36.1273 34.9547C36.5021 34.737 36.9266 34.4245 37.1441 34.0481C37.3617 33.6718 37.4775 33.2448 37.4802 32.8095C37.4802 32.1479 37.2188 31.5134 36.7537 31.0457C36.2885 30.5779 35.6577 30.3151 34.9998 30.3151Z" fill="#ED3237"/>
<path fill-rule="evenodd" clip-rule="evenodd" d="M24.0827 16.5354C24.0827 18.6663 22.3553 20.3937 20.2245 20.3937C18.0936 20.3937 16.3662 18.6663 16.3662 16.5354C16.3662 14.4045 18.0936 12.6771 20.2245 12.6771C22.3553 12.6771 24.0827 14.4045 24.0827 16.5354ZM20.2245 18.1889C21.1377 18.1889 21.878 17.4486 21.878 16.5354C21.878 15.6222 21.1377 14.8818 20.2245 14.8818C19.3113 14.8818 18.5709 15.6222 18.5709 16.5354C18.5709 17.4486 19.3113 18.1889 20.2245 18.1889Z" fill="#ED3237"/>
<path fill-rule="evenodd" clip-rule="evenodd" d="M52.7165 51.8583C52.7165 53.9891 50.9891 55.7165 48.8583 55.7165C46.7274 55.7165 45 53.9891 45 51.8583C45 49.7274 46.7274 48 48.8583 48C50.9891 48 52.7165 49.7274 52.7165 51.8583ZM48.8583 53.5118C49.7715 53.5118 50.5118 52.7715 50.5118 51.8583C50.5118 50.945 49.7715 50.2047 48.8583 50.2047C47.945 50.2047 47.2047 50.945 47.2047 51.8583C47.2047 52.7715 47.945 53.5118 48.8583 53.5118Z" fill="#ED3237"/>
</svg>
